<svg width="702" height="1374" viewBox="0 0 702 1374" fill="none" xmlns="http://www.w3.org/2000/svg">
<g opacity="0.99">
<path d="M-318.101 1374.55C-381.059 1269.56 -371.163 1124.7 -292.614 1030.36C-267.774 1000.58 -236.806 974.912 -221.591 939.447C-200.434 889.985 -214.62 833.142 -232.195 782.188C-249.77 731.234 -270.626 678.483 -262.147 625.367C-250.612 554.116 -189.813 502.762 -153.052 440.621C-102.327 354.835 -99.9277 242.631 -146.242 154.5" stroke="url(#paint0_linear_33_3367)" stroke-width="0.75" stroke-miterlimit="10" stroke-linecap="round"/>
</g>
<g opacity="0.98">
<path d="M-308.096 1376.19C-371.028 1271.19 -361.131 1126.33 -282.582 1031.99C-257.742 1002.21 -226.801 976.552 -211.586 941.087C-190.429 891.626 -204.615 834.783 -222.19 783.829C-239.765 732.874 -260.62 680.124 -252.142 627.008C-240.58 555.745 -179.781 504.39 -143.047 442.261C-92.295 356.463 -89.9224 244.271 -136.237 156.14" stroke="url(#paint1_linear_33_3367)" stroke-width="0.75" stroke-miterlimit="10" stroke-linecap="round"/>
</g>
<g opacity="0.98">
<path d="M-298.003 1377.96C-360.949 1272.99 -351.065 1128.1 -272.516 1033.76C-247.663 1004.01 -216.734 978.326 -201.493 942.849C-180.336 893.387 -194.522 836.545 -212.123 785.603C-229.725 734.661 -250.554 681.898 -242.076 628.782C-230.514 557.519 -169.715 506.164 -132.954 444.023C-82.2288 358.237 -79.8297 246.033 -126.171 157.914" stroke="url(#paint2_linear_33_3367)" stroke-width="0.75" stroke-miterlimit="10" stroke-linecap="round"/>
</g>
<g opacity="0.97">
<path d="M-287.936 1379.73C-350.882 1274.77 -340.998 1129.88 -262.448 1035.54C-237.596 1005.78 -206.641 980.087 -191.426 944.622C-170.269 895.16 -184.455 838.318 -202.03 787.363C-219.605 736.409 -240.461 683.659 -231.982 630.542C-220.447 559.292 -159.648 507.937 -122.887 445.796C-72.1353 359.998 -69.7626 247.806 -116.077 159.675" stroke="url(#paint3_linear_33_3367)" stroke-width="0.75" stroke-miterlimit="10" stroke-linecap="round"/>
</g>
<g opacity="0.96">
<path d="M-277.93 1381.3C-340.875 1276.34 -330.991 1131.45 -252.442 1037.11C-227.59 1007.36 -196.661 981.675 -181.419 946.198C-160.262 896.736 -174.448 839.893 -192.05 788.951C-209.651 738.009 -230.48 685.247 -222.002 632.13C-210.44 560.867 -149.641 509.513 -112.907 447.384C-62.1551 361.586 -59.7825 249.394 -106.097 161.263" stroke="url(#paint4_linear_33_3367)" stroke-width="0.75" stroke-miterlimit="10" stroke-linecap="round"/>
</g>
<g opacity="0.95">
<path d="M-267.873 1382.99C-330.819 1278.02 -320.934 1133.13 -242.385 1038.79C-217.533 1009.04 -186.604 983.356 -171.363 947.879C-150.206 898.417 -164.391 841.575 -181.993 790.633C-199.594 739.691 -220.424 686.929 -211.918 633.8C-200.383 562.549 -139.585 511.194 -102.824 449.053C-52.0986 363.267 -49.6992 251.064 -96.0404 162.945" stroke="url(#paint5_linear_33_3367)" stroke-width="0.75" stroke-miterlimit="10" stroke-linecap="round"/>
</g>
<g opacity="0.95">
<path d="M-257.87 1384.69C-320.789 1279.72 -310.931 1134.84 -232.356 1040.49C-207.504 1010.73 -176.562 985.077 -161.36 949.585C-140.203 900.124 -154.388 843.282 -171.963 792.327C-189.538 741.373 -210.394 688.623 -201.916 635.506C-190.341 564.27 -129.555 512.888 -92.8213 450.759C-42.0691 364.961 -39.6839 252.796 -86.011 164.639" stroke="url(#paint6_linear_33_3367)" stroke-width="0.75" stroke-miterlimit="10" stroke-linecap="round"/>
</g>
<g opacity="0.94">
<path d="M-247.813 1386.37C-310.759 1281.41 -300.875 1136.52 -222.326 1042.18C-197.474 1012.43 -166.532 986.77 -151.303 951.267C-130.146 901.805 -144.332 844.963 -161.933 794.021C-179.535 743.079 -200.364 690.316 -191.886 637.2C-180.324 565.937 -119.537 514.556 -82.8035 452.426C-32.0514 366.628 -29.6662 254.464 -75.9932 166.306" stroke="url(#paint7_linear_33_3367)" stroke-width="0.75" stroke-miterlimit="10" stroke-linecap="round"/>
</g>
<g opacity="0.93">
<path d="M-237.784 1388.07C-300.729 1283.11 -290.845 1138.22 -212.296 1043.88C-187.444 1014.12 -156.476 988.453 -141.273 952.961C-120.116 903.499 -134.302 846.657 -151.877 795.703C-169.452 744.748 -190.308 691.998 -181.829 638.882C-170.294 567.631 -109.508 516.25 -72.7471 454.109C-22.0215 368.323 -19.6101 256.145 -65.9371 167.988" stroke="url(#paint8_linear_33_3367)" stroke-width="0.75" stroke-miterlimit="10" stroke-linecap="round"/>
</g>
<g opacity="0.93">
<path d="M-227.754 1389.76C-290.673 1284.79 -280.789 1139.9 -202.24 1045.56C-177.387 1015.8 -146.446 990.147 -131.243 954.655C-110.087 905.193 -124.272 848.351 -141.835 797.423C-159.398 746.495 -180.278 693.692 -171.787 640.602C-160.225 569.339 -99.4389 517.958 -62.7049 455.829C-11.9528 370.031 -9.5679 257.866 -55.8949 169.708" stroke="url(#paint9_linear_33_3367)" stroke-width="0.75" stroke-miterlimit="10" stroke-linecap="round"/>
</g>
<g opacity="0.92">
<path d="M-217.698 1391.44C-280.644 1286.48 -270.759 1141.59 -192.21 1047.25C-167.358 1017.5 -136.417 991.841 -121.188 956.337C-100.031 906.875 -114.216 850.032 -131.805 799.117C-149.395 748.201 -170.249 695.386 -161.758 642.296C-150.196 571.033 -89.4096 519.652 -52.6491 457.511C-1.92353 371.725 0.487867 259.547 -45.8657 171.402" stroke="url(#paint10_linear_33_3367)" stroke-width="0.75" stroke-miterlimit="10" stroke-linecap="round"/>
</g>
<g opacity="0.91">
<path d="M-207.668 1393.14C-270.587 1288.16 -260.717 1143.31 -182.18 1048.95C-157.328 1019.19 -126.36 993.522 -111.157 958.031C-90.0006 908.569 -104.186 851.726 -121.749 800.799C-139.312 749.871 -160.192 697.067 -151.701 643.978C-140.166 572.727 -79.3794 521.346 -42.619 459.205C8.14542 373.433 10.518 261.241 -35.809 173.084" stroke="url(#paint11_linear_33_3367)" stroke-width="0.75" stroke-miterlimit="10" stroke-linecap="round"/>
</g>
<g opacity="0.91">
<path d="M-197.612 1394.82C-260.558 1289.86 -250.661 1144.99 -172.124 1050.63C-147.272 1020.87 -116.331 995.216 -101.102 959.712C-79.9447 910.25 -94.1302 853.408 -111.732 802.466C-129.333 751.524 -150.163 698.761 -141.684 645.645C-130.122 574.382 -69.3355 523.001 -32.6016 460.872C18.1628 375.1 20.5351 262.909 -25.7919 174.751" stroke="url(#paint12_linear_33_3367)" stroke-width="0.75" stroke-miterlimit="10" stroke-linecap="round"/>
</g>
<g opacity="0.9">
<path d="M-187.529 1396.49C-250.475 1291.53 -240.578 1146.66 -162.041 1052.3C-137.189 1022.54 -106.248 996.885 -91.0185 961.381C-69.8616 911.92 -84.0472 855.078 -101.649 804.136C-119.25 753.194 -140.079 700.431 -131.574 647.302C-120.039 576.052 -59.2528 524.67 -22.4923 462.529C28.2456 376.77 30.645 264.566 -15.7086 176.421" stroke="url(#paint13_linear_33_3367)" stroke-width="0.75" stroke-miterlimit="10" stroke-linecap="round"/>
</g>
<g opacity="0.89">
<path d="M-177.553 1398.21C-240.472 1293.23 -230.602 1148.38 -152.038 1054C-127.186 1024.25 -96.2448 998.592 -81.0421 963.1C-59.8852 913.638 -74.0704 856.796 -91.6454 805.842C-109.22 754.888 -130.077 702.137 -121.598 649.021C-110.036 577.758 -49.2495 526.376 -12.5156 464.247C38.2488 378.476 40.6214 266.285 -5.70561 178.127" stroke="url(#paint14_linear_33_3367)" stroke-width="0.75" stroke-miterlimit="10" stroke-linecap="round"/>
</g>
<g opacity="0.88">
<path d="M-167.496 1399.89C-230.441 1294.93 -220.545 1150.06 -142.008 1055.7C-117.156 1025.94 -86.2148 1000.29 -70.9856 964.781C-49.8287 915.32 -64.014 858.478 -81.6155 807.536C-99.217 756.594 -120.047 703.831 -111.568 650.715C-100.006 579.452 -39.2199 528.07 -2.45944 465.929C48.2785 380.17 50.6779 267.966 4.32432 179.821" stroke="url(#paint15_linear_33_3367)" stroke-width="0.75" stroke-miterlimit="10" stroke-linecap="round"/>
</g>
<g opacity="0.88">
<path d="M-157.466 1401.58C-220.412 1296.62 -210.516 1151.76 -131.979 1057.39C-107.127 1027.63 -76.1588 1001.97 -60.9561 966.475C-39.7993 917.014 -53.9845 860.172 -71.5595 809.217C-89.1345 758.263 -109.991 705.513 -101.512 652.396C-89.9767 581.146 -29.1901 529.764 7.58266 467.649C58.3348 381.851 60.7074 269.66 14.3803 181.503" stroke="url(#paint16_linear_33_3367)" stroke-width="0.75" stroke-miterlimit="10" stroke-linecap="round"/>
</g>
<g opacity="0.87">
<path d="M-147.397 1403.29C-210.355 1298.3 -200.459 1153.44 -121.922 1059.07C-97.0698 1029.32 -66.1285 1003.66 -50.9258 968.17C-29.7689 918.708 -43.9544 861.865 -61.5294 810.911C-79.1044 759.957 -99.9605 707.206 -91.4819 654.09C-79.9201 582.827 -19.1332 531.446 17.613 469.344C68.3651 383.546 70.7374 271.354 24.4104 183.196" stroke="url(#paint17_linear_33_3367)" stroke-width="0.75" stroke-miterlimit="10" stroke-linecap="round"/>
</g>
<g opacity="0.86">
<path d="M-137.367 1404.98C-200.325 1300 -190.429 1155.13 -111.892 1060.77C-87.0399 1031.01 -56.0985 1005.36 -40.8693 969.851C-19.7124 920.389 -33.898 863.547 -51.4995 812.605C-69.101 761.663 -89.9306 708.9 -81.452 655.784C-69.8902 584.521 -9.10327 533.14 27.6695 471.025C78.3951 385.239 80.7938 273.035 34.4403 184.89" stroke="url(#paint18_linear_33_3367)" stroke-width="0.75" stroke-miterlimit="10" stroke-linecap="round"/>
</g>
<g opacity="0.86">
<path d="M-127.338 1406.68C-190.269 1301.68 -180.399 1156.83 -101.862 1062.46C-77.0104 1032.7 -46.0425 1007.04 -30.8398 971.545C-9.68296 922.083 -23.8685 865.241 -41.4435 814.286C-59.0184 763.332 -79.8746 710.582 -71.396 657.466C-59.8607 586.215 0.926225 534.834 37.699 472.719C88.4511 386.921 90.8234 274.729 44.5086 186.598" stroke="url(#paint19_linear_33_3367)" stroke-width="0.75" stroke-miterlimit="10" stroke-linecap="round"/>
</g>
<g opacity="0.85">
<path d="M-117.282 1408.36C-180.24 1303.37 -170.343 1158.51 -91.7939 1064.17C-66.9541 1034.39 -36.0127 1008.73 -20.7712 973.253C0.385651 923.792 -13.7999 866.949 -31.4014 816.007C-49.0029 765.065 -69.8325 712.302 -61.3539 659.186C-49.7921 587.923 11.0071 536.569 47.741 474.439C98.4931 388.641 100.865 276.45 54.5507 188.319" stroke="url(#paint20_linear_33_3367)" stroke-width="0.75" stroke-miterlimit="10" stroke-linecap="round"/>
</g>
<g opacity="0.84">
<path d="M-107.172 1410.02C-170.13 1305.03 -160.234 1160.17 -81.6846 1065.83C-56.8448 1036.04 -25.877 1010.38 -10.662 974.91C10.4949 925.449 -3.69102 868.606 -21.2925 817.664C-38.894 766.722 -59.7232 713.959 -51.2182 660.831C-39.6829 589.58 21.116 538.226 57.8764 476.084C108.602 390.299 111.001 278.094 64.6599 189.976" stroke="url(#paint21_linear_33_3367)" stroke-width="0.75" stroke-miterlimit="10" stroke-linecap="round"/>
</g>
<g opacity="0.83">
<path d="M-97.2223 1411.75C-160.142 1306.77 -150.284 1161.9 -71.708 1067.54C-46.8559 1037.79 -15.9269 1012.11 -0.71185 976.641C20.445 927.179 6.25978 870.337 -11.3152 819.383C-28.8902 768.429 -49.7463 715.678 -41.2677 662.562C-29.7059 591.299 31.093 539.944 67.8269 477.815C118.579 392.017 120.952 279.826 74.6369 191.695" stroke="url(#paint22_linear_33_3367)" stroke-width="0.75" stroke-miterlimit="10" stroke-linecap="round"/>
</g>
<g opacity="0.83">
<path d="M-87.1654 1413.43C-150.111 1308.47 -140.227 1163.58 -61.6779 1069.24C-36.8258 1039.48 -5.89677 1013.8 9.34475 978.323C30.5016 928.861 16.3163 872.019 -1.28517 821.077C-18.8867 770.135 -39.7163 717.372 -31.2377 664.256C-19.6759 592.993 41.123 541.638 77.8835 479.496C128.609 393.711 131.008 281.507 84.6669 193.389" stroke="url(#paint23_linear_33_3367)" stroke-width="0.75" stroke-miterlimit="10" stroke-linecap="round"/>
</g>
<g opacity="0.82">
<path d="M-77.136 1415.12C-140.082 1310.16 -130.197 1165.27 -51.6482 1070.93C-26.7961 1041.18 4.15917 1015.48 19.3742 980.017C40.531 930.555 26.3458 873.713 8.77082 822.758C-8.80416 771.804 -29.6603 719.054 -21.1817 665.938C-9.64641 594.687 51.1525 543.332 87.913 481.19C138.665 395.392 141.038 283.201 94.7229 195.07" stroke="url(#paint24_linear_33_3367)" stroke-width="0.75" stroke-miterlimit="10" stroke-linecap="round"/>
</g>
<g opacity="0.81">
<path d="M-67.0797 1416.81C-130.025 1311.84 -120.141 1166.95 -41.5919 1072.61C-16.7398 1042.86 14.1892 1017.18 29.4042 981.711C50.5611 932.249 36.3756 875.407 18.8006 824.452C1.22559 773.498 -19.6305 720.748 -11.1519 667.631C0.409843 596.369 61.2091 545.014 97.943 482.885C148.695 397.087 151.067 284.895 104.753 196.764" stroke="url(#paint25_linear_33_3367)" stroke-width="0.75" stroke-miterlimit="10" stroke-linecap="round"/>
</g>
<g opacity="0.81">
<path d="M-57.0497 1418.5C-119.995 1313.54 -110.111 1168.65 -31.5616 1074.31C-6.70954 1044.55 24.2315 1018.9 39.4607 983.393C60.6176 933.931 46.432 877.088 28.8305 826.146C11.229 775.204 -9.60057 722.441 -1.09548 669.313C10.4521 598.089 71.239 546.708 107.999 484.566C158.725 398.781 161.136 286.603 114.783 198.458" stroke="url(#paint26_linear_33_3367)" stroke-width="0.75" stroke-miterlimit="10" stroke-linecap="round"/>
</g>
<g opacity="0.8">
<path d="M-47.0203 1420.19C-109.939 1315.22 -100.081 1170.34 -21.5322 1076C3.31993 1046.25 34.2875 1020.58 49.4902 985.086C70.647 935.625 56.4615 878.782 38.8865 827.828C21.3115 776.873 0.455441 724.123 8.93402 671.007C20.4693 599.756 81.2827 548.363 118.017 486.234C168.769 400.436 171.153 288.27 124.826 200.113" stroke="url(#paint27_linear_33_3367)" stroke-width="0.75" stroke-miterlimit="10" stroke-linecap="round"/>
</g>
<g opacity="0.79">
<path d="M-36.9641 1421.87C-99.9098 1316.91 -90.0251 1172.02 -11.476 1077.68C13.3761 1047.93 44.3172 1022.27 59.5464 986.768C80.7032 937.306 66.5177 880.464 48.9162 829.522C31.3147 778.58 10.4851 725.817 18.9637 672.701C30.5255 601.438 91.3124 550.057 128.046 487.928C178.798 402.13 181.183 289.964 134.856 201.807" stroke="url(#paint28_linear_33_3367)" stroke-width="0.75" stroke-miterlimit="10" stroke-linecap="round"/>
</g>
<g opacity="0.78">
<path d="M-26.8282 1423.52C-89.774 1318.56 -79.8896 1173.67 -1.34046 1079.33C23.5116 1049.57 54.4795 1023.9 69.6822 988.413C90.8391 938.951 76.6532 882.109 59.0905 831.181C41.5278 780.253 20.6475 727.449 29.1383 674.36C40.6736 603.109 101.46 551.728 138.221 489.587C188.946 403.801 191.358 291.623 145.004 203.478" stroke="url(#paint29_linear_33_3367)" stroke-width="0.75" stroke-miterlimit="10" stroke-linecap="round"/>
</g>
<g opacity="0.78">
<path d="M-16.9047 1425.26C-79.8239 1320.29 -69.9392 1175.4 8.60996 1081.06C33.4621 1051.3 64.4031 1025.65 79.6058 990.156C100.763 940.694 86.5771 883.851 69.0144 832.924C51.4517 781.996 30.5711 729.192 39.0619 676.103C50.6237 604.84 111.411 553.459 148.145 491.33C198.897 405.532 201.282 293.367 154.955 205.209" stroke="url(#paint30_linear_33_3367)" stroke-width="0.75" stroke-miterlimit="10" stroke-linecap="round"/>
</g>
<g opacity="0.77">
<path d="M-6.8481 1426.94C-69.7938 1321.98 -59.8968 1177.12 18.64 1082.75C43.4921 1053 74.4331 1027.34 89.6623 991.837C110.819 942.375 96.6339 885.534 79.0447 834.618C61.4556 783.703 40.6014 730.887 49.0922 677.797C60.654 606.534 121.441 555.153 158.201 493.011C208.927 407.225 211.338 295.048 164.985 206.903" stroke="url(#paint31_linear_33_3367)" stroke-width="0.75" stroke-miterlimit="10" stroke-linecap="round"/>
</g>
<g opacity="0.76">
<path d="M3.18158 1428.64C-59.7641 1323.68 -49.8674 1178.81 28.6694 1084.45C53.5215 1054.69 84.489 1029.02 99.6918 993.531C120.849 944.069 106.663 887.227 89.0884 836.273C71.5134 785.319 50.6573 732.569 59.1359 679.452C70.6712 608.202 131.458 556.82 168.218 494.678C218.983 408.907 221.355 296.716 175.028 208.558" stroke="url(#paint32_linear_33_3367)" stroke-width="0.75" stroke-miterlimit="10" stroke-linecap="round"/>
</g>
<g opacity="0.76">
<path d="M13.2379 1430.32C-49.7078 1325.36 -39.8111 1180.49 38.7257 1086.13C63.5778 1056.37 94.5191 1030.72 109.722 995.225C130.879 945.763 116.693 888.921 99.1182 837.967C81.5432 787.013 60.6871 734.262 69.1656 681.146C80.7274 609.883 141.514 558.502 178.248 496.373C229.013 410.601 231.385 298.41 185.058 210.252" stroke="url(#paint33_linear_33_3367)" stroke-width="0.75" stroke-miterlimit="10" stroke-linecap="round"/>
</g>
<g opacity="0.75">
<path d="M23.2186 1431.91C-39.7271 1326.95 -29.8301 1182.08 48.7067 1087.72C73.5588 1057.96 104.5 1032.3 119.729 996.801C140.886 947.339 126.7 890.497 109.099 839.555C91.4974 788.613 70.6678 735.85 79.1729 682.722C90.7082 611.471 151.495 560.09 188.256 497.948C238.993 412.189 241.392 299.985 195.039 211.84" stroke="url(#paint34_linear_33_3367)" stroke-width="0.75" stroke-miterlimit="10" stroke-linecap="round"/>
</g>
<g opacity="0.74">
<path d="M33.285 1433.68C-29.6342 1328.71 -19.7637 1183.86 58.7731 1089.49C83.6252 1059.73 114.593 1034.07 129.796 998.575C150.953 949.113 136.767 892.27 119.192 841.316C101.617 790.362 80.7607 737.611 89.2393 684.495C100.775 613.244 161.588 561.851 198.322 499.722C249.086 413.95 251.459 301.759 205.132 213.601" stroke="url(#paint35_linear_33_3367)" stroke-width="0.75" stroke-miterlimit="10" stroke-linecap="round"/>
</g>
<g opacity="0.74">
<path d="M43.3782 1435.44C-19.5675 1330.48 -9.67052 1185.62 68.8663 1091.25C93.7184 1061.49 124.659 1035.84 139.889 1000.34C161.046 950.874 146.86 894.031 129.258 843.089C111.657 792.147 90.8277 739.385 99.3063 686.268C110.868 615.005 171.655 563.625 208.401 501.522C259.153 415.724 261.525 303.532 215.198 215.375" stroke="url(#paint36_linear_33_3367)" stroke-width="0.75" stroke-miterlimit="10" stroke-linecap="round"/>
</g>
<g opacity="0.73">
<path d="M53.445 1437.22C-9.50075 1332.25 0.396243 1187.39 78.9331 1093.02C103.785 1063.27 134.753 1037.6 149.956 1002.11C171.113 952.647 156.927 895.805 139.352 844.85C121.777 793.896 100.921 741.146 109.399 688.03C120.935 616.779 181.721 565.398 218.494 503.283C269.22 417.497 271.619 305.293 225.292 217.136" stroke="url(#paint37_linear_33_3367)" stroke-width="0.75" stroke-miterlimit="10" stroke-linecap="round"/>
</g>
<g opacity="0.72">
<path d="M63.4253 1438.8C0.493769 1333.8 10.3908 1188.94 88.9276 1094.57C113.78 1064.82 144.721 1039.16 159.924 1003.67C181.081 954.209 166.895 897.366 149.32 846.412C131.745 795.457 110.889 742.707 119.368 689.591C130.929 618.328 191.716 566.947 228.462 504.844C279.214 419.046 281.587 306.855 235.26 218.698" stroke="url(#paint38_linear_33_3367)" stroke-width="0.75" stroke-miterlimit="10" stroke-linecap="round"/>
</g>
<g opacity="0.71">
<path d="M73.4818 1440.49C10.5238 1335.5 20.4208 1190.63 98.9576 1096.27C123.677 1066.57 154.751 1040.86 169.98 1005.35C191.137 955.89 176.952 899.048 159.35 848.106C141.749 797.164 120.919 744.401 129.398 691.285C140.96 620.022 201.746 568.641 238.519 506.526C289.244 420.74 291.643 308.537 245.302 220.418" stroke="url(#paint39_linear_33_3367)" stroke-width="0.75" stroke-miterlimit="10" stroke-linecap="round"/>
</g>
<g opacity="0.71">
<path d="M83.5116 1442.18C20.5536 1337.19 30.4503 1192.33 108.999 1097.99C133.839 1068.2 164.807 1042.54 180.022 1007.07C201.179 957.61 186.993 900.769 169.418 849.814C151.843 798.86 130.988 746.11 139.466 692.993C151.001 621.743 211.8 570.388 248.561 508.246C299.313 422.448 301.685 310.257 255.371 222.126" stroke="url(#paint40_linear_33_3367)" stroke-width="0.75" stroke-miterlimit="10" stroke-linecap="round"/>
</g>
<g opacity="0.7">
<path d="M93.5679 1443.86C30.6099 1338.87 40.5066 1194.01 119.056 1099.67C143.763 1069.95 174.837 1044.23 190.078 1008.75C211.235 959.292 197.05 902.45 179.448 851.508C161.847 800.566 141.017 747.804 149.496 694.687C161.058 623.424 221.856 572.069 258.59 509.94C309.342 424.142 311.715 311.951 265.4 223.82" stroke="url(#paint41_linear_33_3367)" stroke-width="0.75" stroke-miterlimit="10" stroke-linecap="round"/>
</g>
<defs>
<linearGradient id="paint0_linear_33_3367" x1="-33.8874" y1="1283.93" x2="-429.858" y2="253.47" gradientUnits="userSpaceOnUse">
<stop stop-color="#6E2904"/>
<stop offset="0.25" stop-color="#B16406"/>
<stop offset="0.46" stop-color="#FED12C"/>
<stop offset="0.66" stop-color="#B16406"/>
<stop offset="0.82" stop-color="#381A07"/>
<stop offset="1" stop-color="#150C09"/>
</linearGradient>
<linearGradient id="paint1_linear_33_3367" x1="-23.8485" y1="1285.62" x2="-419.811" y2="255.188" gradientUnits="userSpaceOnUse">
<stop stop-color="#6E2904"/>
<stop offset="0.25" stop-color="#B16406"/>
<stop offset="0.46" stop-color="#FED12C"/>
<stop offset="0.66" stop-color="#B16406"/>
<stop offset="0.82" stop-color="#381A07"/>
<stop offset="1" stop-color="#150C09"/>
</linearGradient>
<linearGradient id="paint2_linear_33_3367" x1="-13.8101" y1="1287.31" x2="-409.772" y2="256.879" gradientUnits="userSpaceOnUse">
<stop stop-color="#6E2904"/>
<stop offset="0.25" stop-color="#B16406"/>
<stop offset="0.46" stop-color="#FED12C"/>
<stop offset="0.66" stop-color="#B16406"/>
<stop offset="0.82" stop-color="#381A07"/>
<stop offset="1" stop-color="#150C09"/>
</linearGradient>
<linearGradient id="paint3_linear_33_3367" x1="-3.77091" y1="1289" x2="-399.733" y2="258.57" gradientUnits="userSpaceOnUse">
<stop stop-color="#6E2904"/>
<stop offset="0.25" stop-color="#B16406"/>
<stop offset="0.46" stop-color="#FED12C"/>
<stop offset="0.66" stop-color="#B16406"/>
<stop offset="0.82" stop-color="#381A07"/>
<stop offset="1" stop-color="#150C09"/>
</linearGradient>
<linearGradient id="paint4_linear_33_3367" x1="6.26751" y1="1290.69" x2="-389.695" y2="260.261" gradientUnits="userSpaceOnUse">
<stop stop-color="#6E2904"/>
<stop offset="0.25" stop-color="#B16406"/>
<stop offset="0.46" stop-color="#FED12C"/>
<stop offset="0.66" stop-color="#B16406"/>
<stop offset="0.82" stop-color="#381A07"/>
<stop offset="1" stop-color="#150C09"/>
</linearGradient>
<linearGradient id="paint5_linear_33_3367" x1="16.3065" y1="1292.38" x2="-379.655" y2="261.952" gradientUnits="userSpaceOnUse">
<stop stop-color="#6E2904"/>
<stop offset="0.25" stop-color="#B16406"/>
<stop offset="0.46" stop-color="#FED12C"/>
<stop offset="0.66" stop-color="#B16406"/>
<stop offset="0.82" stop-color="#381A07"/>
<stop offset="1" stop-color="#150C09"/>
</linearGradient>
<linearGradient id="paint6_linear_33_3367" x1="26.337" y1="1294.04" x2="-369.617" y2="263.643" gradientUnits="userSpaceOnUse">
<stop stop-color="#6E2904"/>
<stop offset="0.25" stop-color="#B16406"/>
<stop offset="0.46" stop-color="#FED12C"/>
<stop offset="0.66" stop-color="#B16406"/>
<stop offset="0.82" stop-color="#381A07"/>
<stop offset="1" stop-color="#150C09"/>
</linearGradient>
<linearGradient id="paint7_linear_33_3367" x1="36.3761" y1="1295.74" x2="-359.578" y2="265.333" gradientUnits="userSpaceOnUse">
<stop stop-color="#6E2904"/>
<stop offset="0.25" stop-color="#B16406"/>
<stop offset="0.46" stop-color="#FED12C"/>
<stop offset="0.66" stop-color="#B16406"/>
<stop offset="0.82" stop-color="#381A07"/>
<stop offset="1" stop-color="#150C09"/>
</linearGradient>
<linearGradient id="paint8_linear_33_3367" x1="46.4427" y1="1297.42" x2="-349.539" y2="267.024" gradientUnits="userSpaceOnUse">
<stop stop-color="#6E2904"/>
<stop offset="0.25" stop-color="#B16406"/>
<stop offset="0.46" stop-color="#FED12C"/>
<stop offset="0.66" stop-color="#B16406"/>
<stop offset="0.82" stop-color="#381A07"/>
<stop offset="1" stop-color="#150C09"/>
</linearGradient>
<linearGradient id="paint9_linear_33_3367" x1="56.4817" y1="1299.11" x2="-339.5" y2="268.715" gradientUnits="userSpaceOnUse">
<stop stop-color="#6E2904"/>
<stop offset="0.25" stop-color="#B16406"/>
<stop offset="0.46" stop-color="#FED12C"/>
<stop offset="0.66" stop-color="#B16406"/>
<stop offset="0.82" stop-color="#381A07"/>
<stop offset="1" stop-color="#150C09"/>
</linearGradient>
<linearGradient id="paint10_linear_33_3367" x1="66.52" y1="1300.8" x2="-329.462" y2="270.406" gradientUnits="userSpaceOnUse">
<stop stop-color="#6E2904"/>
<stop offset="0.25" stop-color="#B16406"/>
<stop offset="0.46" stop-color="#FED12C"/>
<stop offset="0.66" stop-color="#B16406"/>
<stop offset="0.82" stop-color="#381A07"/>
<stop offset="1" stop-color="#150C09"/>
</linearGradient>
<linearGradient id="paint11_linear_33_3367" x1="76.5592" y1="1302.49" x2="-319.423" y2="272.096" gradientUnits="userSpaceOnUse">
<stop stop-color="#6E2904"/>
<stop offset="0.25" stop-color="#B16406"/>
<stop offset="0.46" stop-color="#FED12C"/>
<stop offset="0.66" stop-color="#B16406"/>
<stop offset="0.82" stop-color="#381A07"/>
<stop offset="1" stop-color="#150C09"/>
</linearGradient>
<linearGradient id="paint12_linear_33_3367" x1="86.5976" y1="1304.18" x2="-309.384" y2="273.787" gradientUnits="userSpaceOnUse">
<stop stop-color="#6E2904"/>
<stop offset="0.25" stop-color="#B16406"/>
<stop offset="0.46" stop-color="#FED12C"/>
<stop offset="0.66" stop-color="#B16406"/>
<stop offset="0.82" stop-color="#381A07"/>
<stop offset="1" stop-color="#150C09"/>
</linearGradient>
<linearGradient id="paint13_linear_33_3367" x1="96.6366" y1="1305.87" x2="-299.345" y2="275.478" gradientUnits="userSpaceOnUse">
<stop stop-color="#6E2904"/>
<stop offset="0.25" stop-color="#B16406"/>
<stop offset="0.46" stop-color="#FED12C"/>
<stop offset="0.66" stop-color="#B16406"/>
<stop offset="0.82" stop-color="#381A07"/>
<stop offset="1" stop-color="#150C09"/>
</linearGradient>
<linearGradient id="paint14_linear_33_3367" x1="106.675" y1="1307.56" x2="-289.278" y2="277.161" gradientUnits="userSpaceOnUse">
<stop stop-color="#6E2904"/>
<stop offset="0.25" stop-color="#B16406"/>
<stop offset="0.46" stop-color="#FED12C"/>
<stop offset="0.66" stop-color="#B16406"/>
<stop offset="0.82" stop-color="#381A07"/>
<stop offset="1" stop-color="#150C09"/>
</linearGradient>
<linearGradient id="paint15_linear_33_3367" x1="116.706" y1="1309.23" x2="-279.231" y2="278.88" gradientUnits="userSpaceOnUse">
<stop stop-color="#6E2904"/>
<stop offset="0.25" stop-color="#B16406"/>
<stop offset="0.46" stop-color="#FED12C"/>
<stop offset="0.66" stop-color="#B16406"/>
<stop offset="0.82" stop-color="#381A07"/>
<stop offset="1" stop-color="#150C09"/>
</linearGradient>
<linearGradient id="paint16_linear_33_3367" x1="126.745" y1="1310.92" x2="-269.193" y2="280.57" gradientUnits="userSpaceOnUse">
<stop stop-color="#6E2904"/>
<stop offset="0.25" stop-color="#B16406"/>
<stop offset="0.46" stop-color="#FED12C"/>
<stop offset="0.66" stop-color="#B16406"/>
<stop offset="0.82" stop-color="#381A07"/>
<stop offset="1" stop-color="#150C09"/>
</linearGradient>
<linearGradient id="paint17_linear_33_3367" x1="136.784" y1="1312.61" x2="-259.154" y2="282.261" gradientUnits="userSpaceOnUse">
<stop stop-color="#6E2904"/>
<stop offset="0.25" stop-color="#B16406"/>
<stop offset="0.46" stop-color="#FED12C"/>
<stop offset="0.66" stop-color="#B16406"/>
<stop offset="0.82" stop-color="#381A07"/>
<stop offset="1" stop-color="#150C09"/>
</linearGradient>
<linearGradient id="paint18_linear_33_3367" x1="146.823" y1="1314.3" x2="-249.115" y2="283.952" gradientUnits="userSpaceOnUse">
<stop stop-color="#6E2904"/>
<stop offset="0.25" stop-color="#B16406"/>
<stop offset="0.46" stop-color="#FED12C"/>
<stop offset="0.66" stop-color="#B16406"/>
<stop offset="0.82" stop-color="#381A07"/>
<stop offset="1" stop-color="#150C09"/>
</linearGradient>
<linearGradient id="paint19_linear_33_3367" x1="156.861" y1="1315.99" x2="-239.076" y2="285.642" gradientUnits="userSpaceOnUse">
<stop stop-color="#6E2904"/>
<stop offset="0.25" stop-color="#B16406"/>
<stop offset="0.46" stop-color="#FED12C"/>
<stop offset="0.66" stop-color="#B16406"/>
<stop offset="0.82" stop-color="#381A07"/>
<stop offset="1" stop-color="#150C09"/>
</linearGradient>
<linearGradient id="paint20_linear_33_3367" x1="166.9" y1="1317.68" x2="-229.037" y2="287.333" gradientUnits="userSpaceOnUse">
<stop stop-color="#6E2904"/>
<stop offset="0.25" stop-color="#B16406"/>
<stop offset="0.46" stop-color="#FED12C"/>
<stop offset="0.66" stop-color="#B16406"/>
<stop offset="0.82" stop-color="#381A07"/>
<stop offset="1" stop-color="#150C09"/>
</linearGradient>
<linearGradient id="paint21_linear_33_3367" x1="176.939" y1="1319.37" x2="-218.998" y2="289.024" gradientUnits="userSpaceOnUse">
<stop stop-color="#6E2904"/>
<stop offset="0.25" stop-color="#B16406"/>
<stop offset="0.46" stop-color="#FED12C"/>
<stop offset="0.66" stop-color="#B16406"/>
<stop offset="0.82" stop-color="#381A07"/>
<stop offset="1" stop-color="#150C09"/>
</linearGradient>
<linearGradient id="paint22_linear_33_3367" x1="186.978" y1="1321.06" x2="-208.959" y2="290.715" gradientUnits="userSpaceOnUse">
<stop stop-color="#6E2904"/>
<stop offset="0.25" stop-color="#B16406"/>
<stop offset="0.46" stop-color="#FED12C"/>
<stop offset="0.66" stop-color="#B16406"/>
<stop offset="0.82" stop-color="#381A07"/>
<stop offset="1" stop-color="#150C09"/>
</linearGradient>
<linearGradient id="paint23_linear_33_3367" x1="197.017" y1="1322.75" x2="-198.92" y2="292.406" gradientUnits="userSpaceOnUse">
<stop stop-color="#6E2904"/>
<stop offset="0.25" stop-color="#B16406"/>
<stop offset="0.46" stop-color="#FED12C"/>
<stop offset="0.66" stop-color="#B16406"/>
<stop offset="0.82" stop-color="#381A07"/>
<stop offset="1" stop-color="#150C09"/>
</linearGradient>
<linearGradient id="paint24_linear_33_3367" x1="207.047" y1="1324.41" x2="-188.882" y2="294.097" gradientUnits="userSpaceOnUse">
<stop stop-color="#6E2904"/>
<stop offset="0.25" stop-color="#B16406"/>
<stop offset="0.46" stop-color="#FED12C"/>
<stop offset="0.66" stop-color="#B16406"/>
<stop offset="0.82" stop-color="#381A07"/>
<stop offset="1" stop-color="#150C09"/>
</linearGradient>
<linearGradient id="paint25_linear_33_3367" x1="217.086" y1="1326.11" x2="-178.843" y2="295.787" gradientUnits="userSpaceOnUse">
<stop stop-color="#6E2904"/>
<stop offset="0.25" stop-color="#B16406"/>
<stop offset="0.46" stop-color="#FED12C"/>
<stop offset="0.66" stop-color="#B16406"/>
<stop offset="0.82" stop-color="#381A07"/>
<stop offset="1" stop-color="#150C09"/>
</linearGradient>
<linearGradient id="paint26_linear_33_3367" x1="227.125" y1="1327.8" x2="-168.804" y2="297.478" gradientUnits="userSpaceOnUse">
<stop stop-color="#6E2904"/>
<stop offset="0.25" stop-color="#B16406"/>
<stop offset="0.46" stop-color="#FED12C"/>
<stop offset="0.66" stop-color="#B16406"/>
<stop offset="0.82" stop-color="#381A07"/>
<stop offset="1" stop-color="#150C09"/>
</linearGradient>
<linearGradient id="paint27_linear_33_3367" x1="237.163" y1="1329.49" x2="-158.757" y2="299.197" gradientUnits="userSpaceOnUse">
<stop stop-color="#6E2904"/>
<stop offset="0.25" stop-color="#B16406"/>
<stop offset="0.46" stop-color="#FED12C"/>
<stop offset="0.66" stop-color="#B16406"/>
<stop offset="0.82" stop-color="#381A07"/>
<stop offset="1" stop-color="#150C09"/>
</linearGradient>
<linearGradient id="paint28_linear_33_3367" x1="247.202" y1="1331.18" x2="-148.727" y2="300.86" gradientUnits="userSpaceOnUse">
<stop stop-color="#6E2904"/>
<stop offset="0.25" stop-color="#B16406"/>
<stop offset="0.46" stop-color="#FED12C"/>
<stop offset="0.66" stop-color="#B16406"/>
<stop offset="0.82" stop-color="#381A07"/>
<stop offset="1" stop-color="#150C09"/>
</linearGradient>
<linearGradient id="paint29_linear_33_3367" x1="257.241" y1="1332.87" x2="-138.68" y2="302.578" gradientUnits="userSpaceOnUse">
<stop stop-color="#6E2904"/>
<stop offset="0.25" stop-color="#B16406"/>
<stop offset="0.46" stop-color="#FED12C"/>
<stop offset="0.66" stop-color="#B16406"/>
<stop offset="0.82" stop-color="#381A07"/>
<stop offset="1" stop-color="#150C09"/>
</linearGradient>
<linearGradient id="paint30_linear_33_3367" x1="267.28" y1="1334.56" x2="-128.641" y2="304.27" gradientUnits="userSpaceOnUse">
<stop stop-color="#6E2904"/>
<stop offset="0.25" stop-color="#B16406"/>
<stop offset="0.46" stop-color="#FED12C"/>
<stop offset="0.66" stop-color="#B16406"/>
<stop offset="0.82" stop-color="#381A07"/>
<stop offset="1" stop-color="#150C09"/>
</linearGradient>
<linearGradient id="paint31_linear_33_3367" x1="277.347" y1="1336.24" x2="-118.574" y2="305.952" gradientUnits="userSpaceOnUse">
<stop stop-color="#6E2904"/>
<stop offset="0.25" stop-color="#B16406"/>
<stop offset="0.46" stop-color="#FED12C"/>
<stop offset="0.66" stop-color="#B16406"/>
<stop offset="0.82" stop-color="#381A07"/>
<stop offset="1" stop-color="#150C09"/>
</linearGradient>
<linearGradient id="paint32_linear_33_3367" x1="287.386" y1="1337.93" x2="-108.535" y2="307.643" gradientUnits="userSpaceOnUse">
<stop stop-color="#6E2904"/>
<stop offset="0.25" stop-color="#B16406"/>
<stop offset="0.46" stop-color="#FED12C"/>
<stop offset="0.66" stop-color="#B16406"/>
<stop offset="0.82" stop-color="#381A07"/>
<stop offset="1" stop-color="#150C09"/>
</linearGradient>
<linearGradient id="paint33_linear_33_3367" x1="297.416" y1="1339.6" x2="-98.4963" y2="309.333" gradientUnits="userSpaceOnUse">
<stop stop-color="#6E2904"/>
<stop offset="0.25" stop-color="#B16406"/>
<stop offset="0.46" stop-color="#FED12C"/>
<stop offset="0.66" stop-color="#B16406"/>
<stop offset="0.82" stop-color="#381A07"/>
<stop offset="1" stop-color="#150C09"/>
</linearGradient>
<linearGradient id="paint34_linear_33_3367" x1="307.455" y1="1341.29" x2="-88.4574" y2="311.024" gradientUnits="userSpaceOnUse">
<stop stop-color="#6E2904"/>
<stop offset="0.25" stop-color="#B16406"/>
<stop offset="0.46" stop-color="#FED12C"/>
<stop offset="0.66" stop-color="#B16406"/>
<stop offset="0.82" stop-color="#381A07"/>
<stop offset="1" stop-color="#150C09"/>
</linearGradient>
<linearGradient id="paint35_linear_33_3367" x1="317.494" y1="1342.98" x2="-78.4188" y2="312.715" gradientUnits="userSpaceOnUse">
<stop stop-color="#6E2904"/>
<stop offset="0.25" stop-color="#B16406"/>
<stop offset="0.46" stop-color="#FED12C"/>
<stop offset="0.66" stop-color="#B16406"/>
<stop offset="0.82" stop-color="#381A07"/>
<stop offset="1" stop-color="#150C09"/>
</linearGradient>
<linearGradient id="paint36_linear_33_3367" x1="327.532" y1="1344.67" x2="-68.38" y2="314.406" gradientUnits="userSpaceOnUse">
<stop stop-color="#6E2904"/>
<stop offset="0.25" stop-color="#B16406"/>
<stop offset="0.46" stop-color="#FED12C"/>
<stop offset="0.66" stop-color="#B16406"/>
<stop offset="0.82" stop-color="#381A07"/>
<stop offset="1" stop-color="#150C09"/>
</linearGradient>
<linearGradient id="paint37_linear_33_3367" x1="337.571" y1="1346.36" x2="-58.3411" y2="316.096" gradientUnits="userSpaceOnUse">
<stop stop-color="#6E2904"/>
<stop offset="0.25" stop-color="#B16406"/>
<stop offset="0.46" stop-color="#FED12C"/>
<stop offset="0.66" stop-color="#B16406"/>
<stop offset="0.82" stop-color="#381A07"/>
<stop offset="1" stop-color="#150C09"/>
</linearGradient>
<linearGradient id="paint38_linear_33_3367" x1="347.61" y1="1348.05" x2="-48.3023" y2="317.788" gradientUnits="userSpaceOnUse">
<stop stop-color="#6E2904"/>
<stop offset="0.25" stop-color="#B16406"/>
<stop offset="0.46" stop-color="#FED12C"/>
<stop offset="0.66" stop-color="#B16406"/>
<stop offset="0.82" stop-color="#381A07"/>
<stop offset="1" stop-color="#150C09"/>
</linearGradient>
<linearGradient id="paint39_linear_33_3367" x1="357.649" y1="1349.74" x2="-38.2633" y2="319.478" gradientUnits="userSpaceOnUse">
<stop stop-color="#6E2904"/>
<stop offset="0.25" stop-color="#B16406"/>
<stop offset="0.46" stop-color="#FED12C"/>
<stop offset="0.66" stop-color="#B16406"/>
<stop offset="0.82" stop-color="#381A07"/>
<stop offset="1" stop-color="#150C09"/>
</linearGradient>
<linearGradient id="paint40_linear_33_3367" x1="367.688" y1="1351.43" x2="-28.2246" y2="321.169" gradientUnits="userSpaceOnUse">
<stop stop-color="#6E2904"/>
<stop offset="0.25" stop-color="#B16406"/>
<stop offset="0.46" stop-color="#FED12C"/>
<stop offset="0.66" stop-color="#B16406"/>
<stop offset="0.82" stop-color="#381A07"/>
<stop offset="1" stop-color="#150C09"/>
</linearGradient>
<linearGradient id="paint41_linear_33_3367" x1="377.727" y1="1353.12" x2="-18.1775" y2="322.888" gradientUnits="userSpaceOnUse">
<stop stop-color="#6E2904"/>
<stop offset="0.25" stop-color="#B16406"/>
<stop offset="0.46" stop-color="#FED12C"/>
<stop offset="0.66" stop-color="#B16406"/>
<stop offset="0.82" stop-color="#381A07"/>
<stop offset="1" stop-color="#150C09"/>
</linearGradient>
</defs>
</svg>
