<svg width="26" height="19" viewBox="0 0 26 19" fill="none" xmlns="http://www.w3.org/2000/svg">
<g id="Group">
<path id="Vector" d="M24.5989 2.32227C25.0373 3.01348 25.2227 3.67098 25.2396 4.36219C25.2564 7.7677 25.2733 11.1901 25.2396 14.5956C25.2059 16.9052 23.1828 18.9283 20.89 18.962C15.63 19.0126 10.37 19.0126 5.1269 18.962C2.80036 18.9452 0.794152 16.8884 0.760434 14.545C0.726716 11.1732 0.743575 7.80141 0.760434 4.42963C0.760434 3.72156 0.945881 3.03034 1.38421 2.35598C1.56966 2.52457 1.73825 2.64259 1.87312 2.77746C4.11536 5.01969 6.37445 7.27879 8.61669 9.52102C11.213 12.1173 14.7871 12.1173 17.3833 9.52102C19.6256 7.27879 21.8847 5.01969 24.1269 2.77746C24.2449 2.64259 24.3798 2.52457 24.5989 2.32227Z" fill="#F5E9A9"/>
<path id="Vector_2" d="M2.58121 0.939885C3.39044 0.332964 4.23338 0.0126442 5.16062 0.0126442C10.37 -0.00421473 15.5963 -0.00421473 20.8057 0.0126442C21.7329 0.0126442 22.5759 0.332964 23.3683 0.939885C23.2165 1.10847 23.0985 1.24335 22.9636 1.37822C20.654 3.68789 18.3443 5.99756 16.0346 8.30723C14.197 10.128 11.7187 10.128 9.89798 8.30723C7.5883 5.99756 5.27863 3.68789 2.96896 1.37822C2.86781 1.2602 2.7498 1.12533 2.58121 0.939885Z" fill="#F5E9A9"/>
</g>
</svg>
