<svg width="22" height="31" viewBox="0 0 22 31" fill="none" xmlns="http://www.w3.org/2000/svg">
<g id="Frame" clip-path="url(#clip0_17_224)">
<g id="Group">
<path id="Vector" d="M3.80564 3.16473C5.86037 1.04292 8.33301 0 11.2236 0C14.1489 0 16.6216 1.04292 18.6415 3.16473C20.6962 5.28654 21.7061 7.83991 21.7061 10.8248C21.7061 12.3353 21.3579 14.0615 20.6265 16.0035C19.8952 17.9455 19.0245 19.7436 17.9798 21.4698C16.935 23.1601 15.925 24.7425 14.9151 26.2169C13.9051 27.6914 13.0345 28.8782 12.338 29.7413L11.2236 30.964C10.9449 30.6404 10.5619 30.1729 10.1091 29.6334C9.65639 29.094 8.78574 27.9432 7.56684 26.2889C6.34793 24.5986 5.26833 22.9803 4.36286 21.3979C3.45738 19.8155 2.62156 18.0534 1.85539 16.0394C1.12405 14.0974 0.740967 12.3353 0.740967 10.8248C0.740967 7.83991 1.75092 5.28654 3.80564 3.16473ZM8.57679 13.558C9.30813 14.3132 10.1788 14.6729 11.2236 14.6729C12.2683 14.6729 13.139 14.3132 13.8703 13.558C14.6017 12.8028 14.9499 11.9037 14.9499 10.8248C14.9499 9.74594 14.6017 8.84687 13.8703 8.09165C13.139 7.33643 12.2683 6.9768 11.2236 6.9768C10.1788 6.9768 9.30813 7.33643 8.57679 8.09165C7.84544 8.84687 7.49719 9.74594 7.49719 10.8248C7.49719 11.9037 7.88027 12.8028 8.57679 13.558Z" fill="#F5E9A9"/>
</g>
</g>
<defs>
<clipPath id="clip0_17_224">
<rect width="21" height="31" fill="white" transform="translate(0.740967)"/>
</clipPath>
</defs>
</svg>
