<svg width="24" height="23" viewBox="0 0 24 23" fill="none" xmlns="http://www.w3.org/2000/svg">
<g id="Group">
<path id="Vector" d="M17.0305 22.9991C15.4894 22.9601 14.0459 22.4724 12.6804 21.8092C7.76451 19.3708 4.09714 15.6644 1.77576 10.6705C1.21005 9.46104 0.780891 8.19307 0.741876 6.82755C0.722369 5.81317 1.01498 4.95485 1.79527 4.25259C2.32197 3.78441 2.79015 3.25771 3.29734 2.77003C4.13615 1.97023 4.99447 1.95072 5.83329 2.77003C6.73063 3.62835 7.60846 4.52569 8.46678 5.42303C9.30559 6.30086 9.30559 7.12016 8.46678 7.97849C7.95959 8.50518 7.4524 9.01237 6.9257 9.50006C6.6721 9.73415 6.6526 9.94873 6.78915 10.2608C7.74501 12.2116 9.16904 13.7917 10.8272 15.1572C11.6465 15.8399 12.5828 16.3471 13.4802 16.9324C13.7728 17.1274 13.9874 17.0689 14.2214 16.8348C14.6896 16.3276 15.1968 15.8594 15.6845 15.3718C16.6208 14.4549 17.4597 14.4549 18.3765 15.3523C19.2153 16.1911 20.0541 17.0299 20.8929 17.8687C21.8098 18.7855 21.7903 19.6439 20.8929 20.5607C20.4053 21.0484 19.9176 21.5361 19.4299 22.0238C18.7862 22.7065 17.9864 23.0186 17.0305 22.9991Z" fill="#F5E9A9"/>
<path id="Vector_2" d="M23.78 10.768C23.1948 10.8656 22.6291 10.9631 22.0829 11.0607C20.8539 5.87171 17.6547 2.77004 12.4073 1.69714C12.4853 1.15093 12.5633 0.565713 12.6414 0C17.6938 0.507191 22.8047 4.7793 23.78 10.768Z" fill="#F5E9A9"/>
<path id="Vector_3" d="M12.1537 6.32043C12.2317 5.73521 12.3097 5.1695 12.3877 4.62329C15.4894 4.81836 18.6691 7.70545 19.0788 11.0802C18.5326 11.1778 17.9668 11.2753 17.3816 11.3728C16.7184 8.60279 15.0212 6.90565 12.1537 6.32043Z" fill="#F5E9A9"/>
</g>
</svg>
