<svg width="36" height="35" viewBox="0 0 36 35" fill="none" xmlns="http://www.w3.org/2000/svg">
<g id="Group">
<path id="Vector" d="M21.2821 35C21.2821 30.7601 21.2821 26.6616 21.2821 22.4499C22.4128 22.4499 23.5151 22.4499 24.674 22.4499C24.9284 20.754 25.1828 19.1711 25.4655 17.4751C23.9391 17.4751 22.5258 17.4469 21.0843 17.5034C20.4341 17.5317 20.208 17.3338 20.2645 16.6837C20.3211 15.8357 20.2646 14.9877 20.2928 14.1398C20.3493 12.5286 21.1691 11.6524 22.7802 11.5676C23.8826 11.511 24.985 11.5676 26.1439 11.5676C26.1439 10.0977 26.1439 8.68445 26.1439 7.18636C23.713 6.9037 21.2539 6.45145 18.8795 7.49728C16.6465 8.48659 15.6007 10.3239 15.4028 12.6699C15.2898 13.9702 15.3463 15.2987 15.318 16.6272C15.318 16.8816 15.318 17.136 15.318 17.4751C13.9895 17.4751 12.7176 17.4751 11.3608 17.4751C11.3608 19.0863 11.3608 20.6127 11.3891 22.1108C11.3891 22.2238 11.7565 22.3934 11.9544 22.4217C13.0285 22.4499 14.1026 22.4499 15.2615 22.4499C15.2615 26.6333 15.2615 30.7601 15.2615 34.9152C9.35392 34.4629 1.38293 29.0076 0.421893 19.1711C-0.510881 9.53243 6.72519 0.939596 16.5617 0.0633536C25.9177 -0.756357 34.5106 6.47971 35.302 15.8923C35.726 20.8105 34.454 25.22 31.2317 29.0359C28.603 32.0886 25.3524 34.0955 21.2821 35Z" fill="url(#paint0_linear_17_166)"/>
</g>
<defs>
<linearGradient id="paint0_linear_17_166" x1="-1.68769" y1="14" x2="41.4669" y2="14.5539" gradientUnits="userSpaceOnUse">
<stop stop-color="#F5E9A9"/>
<stop offset="1" stop-color="#A5752E"/>
</linearGradient>
</defs>
</svg>
