<svg width="36" height="35" viewBox="0 0 36 35" fill="none" xmlns="http://www.w3.org/2000/svg">
<g id="Group">
<path id="Vector" d="M17.9485 0C20.7478 0 23.547 0 26.3462 0C31.5972 0.019305 35.4003 3.80309 35.4003 9.05405C35.4003 14.6718 35.4003 20.3089 35.4003 25.9266C35.4003 31.2162 31.5972 35 26.2883 35C20.6899 35 15.0721 35 9.47364 35C4.18407 35 0.380981 31.1969 0.380981 25.9073C0.380981 20.3089 0.380981 14.6911 0.380981 9.09266C0.400286 3.78378 4.20337 0 9.53156 0C12.3308 0 15.1493 0 17.9485 0ZM17.9099 2.91506C15.13 2.91506 12.3501 2.91506 9.57017 2.91506C5.74777 2.91506 3.29603 5.3861 3.29603 9.20849C3.29603 14.749 3.29603 20.2703 3.29603 25.8108C3.29603 29.6332 5.74777 32.1042 9.57017 32.1042C15.13 32.1042 20.6899 32.1042 26.2497 32.1042C30.0142 32.1042 32.4852 29.6332 32.4852 25.8494C32.4852 20.2896 32.4852 14.7297 32.4852 9.16988C32.4852 5.3861 30.0142 2.91506 26.2497 2.91506C23.4698 2.91506 20.6899 2.91506 17.9099 2.91506Z" fill="url(#paint0_linear_17_168)"/>
<path id="Vector_2" d="M17.8713 26.2548C13.0644 26.2355 9.14545 22.3166 9.14545 17.4904C9.14545 12.6448 13.103 8.72588 17.9678 8.74519C22.7748 8.7838 26.6744 12.722 26.6551 17.5483C26.6358 22.3745 22.6976 26.2741 17.8713 26.2548ZM17.9099 11.6602C14.7246 11.6409 12.0798 14.2664 12.0605 17.4711C12.0219 20.6564 14.6474 23.3012 17.852 23.3398C21.0566 23.3784 23.74 20.7143 23.74 17.4904C23.74 14.305 21.1146 11.6796 17.9099 11.6602Z" fill="url(#paint1_linear_17_168)"/>
<path id="Vector_3" d="M29.5509 8.12732C29.5123 9.32424 28.4891 10.2702 27.3115 10.2123C26.1146 10.1544 25.1686 9.13119 25.2073 7.95358C25.2652 6.71806 26.2497 5.81072 27.5046 5.84933C28.7015 5.90725 29.5895 6.8918 29.5509 8.12732Z" fill="url(#paint2_linear_17_168)"/>
</g>
<defs>
<linearGradient id="paint0_linear_17_168" x1="-1.64645" y1="14" x2="41.4826" y2="14.5532" gradientUnits="userSpaceOnUse">
<stop stop-color="#F5E9A9"/>
<stop offset="1" stop-color="#A5752E"/>
</linearGradient>
<linearGradient id="paint1_linear_17_168" x1="8.13173" y1="15.749" x2="29.6963" y2="16.0255" gradientUnits="userSpaceOnUse">
<stop stop-color="#F5E9A9"/>
<stop offset="1" stop-color="#A5752E"/>
</linearGradient>
<linearGradient id="paint2_linear_17_168" x1="24.9545" y1="7.5948" x2="30.3069" y2="7.6631" gradientUnits="userSpaceOnUse">
<stop stop-color="#F5E9A9"/>
<stop offset="1" stop-color="#A5752E"/>
</linearGradient>
</defs>
</svg>
