<svg width="44" height="35" viewBox="0 0 44 35" fill="none" xmlns="http://www.w3.org/2000/svg">
<g id="Group">
<path id="Vector" d="M0.740967 31.0317C5.4433 31.3505 9.54788 30.2347 13.3735 27.4053C9.38848 26.9271 6.67866 24.9744 5.24405 21.1886C6.51926 21.1886 7.67491 21.1886 8.83057 21.1886C4.72599 19.6345 2.45453 16.845 2.13573 12.4216C3.37108 12.7802 4.52674 13.099 5.6824 13.4178C5.72225 13.3381 5.7621 13.2983 5.80195 13.2186C2.13573 9.99071 1.25902 6.20494 3.37108 1.5823C8.19297 7.20119 14.1705 10.3494 21.5827 10.8276C21.1443 8.0779 21.5827 5.68688 23.1767 3.53497C26.285 -0.60946 32.2625 -1.20721 36.0882 2.25976C36.5664 2.65826 36.9649 2.77781 37.5228 2.57856C39.0371 2.02066 40.5514 1.5026 42.1454 0.9447C41.6273 2.77781 40.3521 4.13272 38.8378 5.28838C38.8777 5.36808 38.9175 5.44778 38.9574 5.52748C40.392 5.12898 41.8266 4.73048 43.3409 4.33197C42.3845 5.76658 41.2687 7.00194 39.9536 8.03805C39.3559 8.51625 39.1168 8.95461 39.1168 9.75161C39.1168 20.5112 31.9836 31.749 19.7495 34.3791C13.5329 35.6941 7.63506 34.937 2.01618 31.9482C1.69737 31.7888 1.37857 31.5896 1.05977 31.3903C0.980068 31.3106 0.940218 31.2309 0.740967 31.0317Z" fill="url(#paint0_linear_17_164)"/>
</g>
<defs>
<linearGradient id="paint0_linear_17_164" x1="-1.72535" y1="14" x2="50.7357" y2="14.8186" gradientUnits="userSpaceOnUse">
<stop stop-color="#F5E9A9"/>
<stop offset="1" stop-color="#A5752E"/>
</linearGradient>
</defs>
</svg>
